<?xml version="1.0" standalone="no"?>
<!DOCTYPE svg PUBLIC "-//W3C//DTD SVG 20010904//EN"
 "http://www.w3.org/TR/2001/REC-SVG-20010904/DTD/svg10.dtd">
<svg version="1.0" xmlns="http://www.w3.org/2000/svg"
 width="1600.000000pt" height="1200.000000pt" viewBox="0 0 1600.000000 1200.000000"
 preserveAspectRatio="xMidYMid meet">
<metadata>
Created by potrace 1.16, written by Peter Selinger 2001-2019
</metadata>
<g transform="translate(0.000000,1200.000000) scale(0.100000,-0.100000)"
fill="#000000" stroke="none">
<path d="M4165 10105 c-131 -34 -202 -47 -287 -55 -121 -11 -167 -19 -189 -30
-10 -6 -33 -10 -51 -10 -19 0 -38 -4 -44 -10 -5 -5 -23 -11 -39 -13 -35 -5
-85 -27 -85 -38 0 -4 -10 -11 -21 -14 -12 -4 -36 -22 -54 -41 -18 -19 -38 -34
-43 -34 -5 0 -16 -8 -25 -17 -12 -15 -31 -18 -94 -17 -47 1 -86 -3 -98 -11
-17 -10 -24 -10 -40 1 -27 20 -35 17 -35 -9 0 -20 -5 -24 -32 -24 -66 -2 -173
-15 -183 -23 -5 -4 -30 -11 -55 -15 -26 -4 -50 -15 -58 -26 -7 -11 -24 -19
-37 -19 -13 0 -28 -6 -32 -14 -9 -16 -86 -56 -106 -56 -8 0 -35 -11 -61 -25
-26 -14 -58 -25 -72 -25 -13 0 -24 -4 -24 -10 0 -5 -11 -10 -24 -10 -13 0 -47
-18 -75 -40 -28 -22 -55 -40 -61 -40 -16 0 -159 -69 -193 -92 -15 -11 -25 -24
-22 -28 5 -8 -87 -63 -107 -65 -4 0 -30 -24 -59 -53 -53 -54 -103 -87 -118
-77 -5 2 -11 -5 -15 -18 -6 -24 -116 -147 -132 -147 -10 0 -121 -119 -138
-148 -6 -11 -26 -46 -44 -78 -18 -32 -48 -85 -68 -118 -19 -32 -37 -70 -40
-85 -10 -45 -26 -81 -37 -81 -6 0 -7 -3 -4 -7 4 -3 0 -14 -9 -24 -9 -10 -16
-34 -16 -53 0 -19 -6 -41 -14 -47 -22 -18 -42 -69 -49 -128 -3 -30 -15 -66
-25 -81 -10 -14 -22 -38 -25 -53 -4 -15 -13 -27 -20 -27 -22 0 -61 -139 -52
-187 6 -31 -10 -93 -29 -113 -17 -17 -93 -14 -109 5 -5 6 -18 15 -27 18 -30
11 -21 -20 10 -32 32 -13 78 -68 87 -103 10 -41 -10 -76 -46 -80 -18 -2 -37
-11 -42 -20 -9 -13 -4 -23 22 -47 26 -24 32 -37 27 -55 -16 -65 -24 -159 -15
-189 5 -17 9 -69 8 -115 -1 -45 3 -88 9 -95 5 -6 13 -26 16 -43 5 -21 13 -31
24 -30 12 1 18 -8 20 -27 3 -22 -1 -30 -17 -34 -21 -5 -29 -23 -11 -23 6 0 10
-10 10 -21 0 -17 -4 -20 -20 -15 -11 3 -29 9 -39 12 -16 5 -22 -1 -32 -35 -14
-48 -2 -74 24 -52 19 15 42 5 56 -26 9 -21 9 -30 -4 -49 -8 -13 -15 -33 -15
-44 0 -12 -6 -20 -12 -19 -35 4 -41 -1 -24 -20 16 -17 16 -29 6 -122 -17 -166
-34 -271 -42 -263 -5 4 -8 2 -8 -4 0 -7 -6 -12 -12 -12 -7 0 -24 -9 -38 -20
-23 -17 -24 -21 -13 -51 11 -29 10 -34 -7 -46 -21 -15 -27 -33 -10 -33 5 0 19
-9 29 -19 12 -12 28 -17 39 -14 14 3 22 -1 27 -16 3 -11 3 -25 0 -31 -9 -15
-27 -1 -21 16 3 9 -1 14 -14 14 -18 0 -60 -47 -60 -68 0 -12 55 -26 68 -18 17
10 35 -14 42 -58 9 -64 1 -74 -47 -54 -54 24 -109 31 -130 18 -16 -10 -18 -25
-14 -136 l3 -124 -31 -35 c-31 -35 -31 -37 -30 -143 1 -78 -3 -115 -14 -136
-10 -18 -15 -56 -15 -107 0 -43 -3 -83 -7 -88 -3 -6 -25 -10 -49 -9 -55 1 -68
-7 -60 -37 4 -17 0 -26 -14 -34 -30 -16 -73 -13 -93 5 -11 10 -19 12 -23 5 -4
-6 5 -18 19 -27 14 -9 25 -22 25 -30 0 -18 -62 -64 -88 -64 -22 0 -52 -24 -52
-42 0 -6 -10 -8 -24 -4 -22 5 -25 3 -23 -21 2 -20 -6 -32 -33 -49 -19 -13 -44
-32 -55 -43 -11 -10 -37 -26 -58 -35 -20 -8 -37 -21 -37 -29 0 -8 -13 -17 -30
-20 l-30 -6 0 -2321 0 -2320 1131 0 1132 0 23 25 c18 19 33 25 66 25 45 -1 84
-21 73 -39 -4 -7 7 -11 29 -11 28 0 36 4 35 18 0 10 -3 12 -6 5 -6 -16 -46
-17 -41 -1 6 16 56 29 64 17 3 -6 16 -9 27 -7 12 1 37 -5 56 -15 37 -19 101
-23 101 -7 0 6 7 10 15 10 8 0 31 9 51 21 27 15 35 16 31 5 -3 -8 2 -21 12
-30 15 -14 48 -16 216 -16 180 0 196 1 184 16 -11 14 -10 18 6 30 27 20 37 18
80 -16 l38 -30 972 0 972 0 26 53 c14 29 29 78 33 107 6 44 15 62 47 97 37 41
39 46 35 94 -5 47 -3 52 27 75 18 14 45 48 59 77 14 29 34 62 46 74 11 12 20
28 20 35 0 8 20 31 45 53 42 37 45 43 40 76 -6 35 -5 37 37 58 25 11 56 21 71
21 15 0 27 5 27 10 0 6 -4 10 -10 10 -5 0 -10 5 -10 11 0 7 13 8 39 4 36 -6
39 -5 56 30 15 32 21 36 46 33 20 -3 30 0 34 11 5 19 2 42 -9 59 -12 19 -5 22
37 15 29 -4 35 -8 26 -19 -13 -16 36 -68 91 -96 49 -25 53 -23 28 16 -12 19
-28 32 -35 29 -7 -3 -13 -1 -13 5 0 6 -3 17 -6 26 -4 10 -1 16 9 16 8 0 18 6
20 13 4 7 6 6 6 -5 1 -9 13 -23 29 -31 15 -8 44 -24 66 -35 36 -20 41 -20 68
-6 16 8 32 22 35 30 7 19 33 18 33 -1 0 -13 23 -20 56 -16 13 1 45 -43 48 -67
2 -9 7 -17 13 -19 21 -7 4 121 -27 207 -17 47 -41 114 -52 150 -11 36 -34 99
-50 140 -81 198 -170 448 -172 480 0 14 -7 32 -15 42 -8 9 -20 31 -26 50 -7
18 -23 60 -35 93 -12 33 -22 73 -21 88 1 16 -8 41 -19 57 -11 15 -20 38 -20
51 0 12 -3 19 -6 16 -4 -3 -15 -2 -26 4 -11 6 -17 13 -14 16 3 4 1 12 -5 20
-9 10 -7 25 6 59 9 25 15 48 12 51 -13 12 -63 -10 -92 -41 -25 -27 -35 -31
-53 -25 -12 5 -25 15 -28 24 -9 23 -28 18 -47 -14 -15 -26 -22 -29 -51 -24
-28 4 -36 1 -52 -22 -33 -46 -75 -95 -82 -93 -6 2 -49 -20 -116 -59 -11 -7
-29 -13 -38 -13 -10 0 -32 -9 -50 -20 -18 -11 -43 -20 -55 -20 -12 0 -28 -6
-35 -13 -7 -8 -31 -17 -52 -21 -20 -4 -53 -16 -72 -26 -22 -13 -50 -19 -78
-18 -35 2 -51 -3 -69 -20 -13 -13 -36 -22 -53 -22 -17 0 -40 -9 -51 -19 -12
-11 -47 -27 -79 -37 -33 -9 -66 -23 -75 -30 -8 -8 -21 -14 -27 -14 -7 0 -12
-4 -12 -10 0 -5 -21 -10 -47 -10 -46 0 -50 -2 -91 -55 -23 -31 -50 -59 -60
-62 -9 -4 -26 -18 -38 -32 -12 -15 -39 -34 -61 -45 -21 -10 -45 -22 -53 -27
-37 -22 -84 -39 -106 -39 -43 0 -62 -30 -56 -90 4 -47 2 -55 -22 -79 -14 -14
-41 -46 -59 -71 -40 -55 -84 -77 -144 -74 -25 2 -46 4 -47 6 0 2 -11 18 -24
36 -42 60 -36 141 16 227 14 22 26 58 28 80 5 54 51 179 75 201 10 9 19 22 19
28 1 18 73 91 242 244 53 47 74 94 40 87 -38 -7 -94 -45 -131 -89 -9 -10 -32
-33 -51 -50 -18 -17 -52 -50 -74 -73 -21 -24 -47 -43 -57 -43 -9 0 -19 -4 -21
-8 -1 -4 -32 -35 -68 -67 -61 -56 -150 -165 -150 -183 0 -5 -9 -17 -20 -27
-11 -10 -20 -24 -20 -32 0 -8 -12 -25 -26 -40 -17 -17 -27 -40 -31 -75 -8 -70
-41 -95 -91 -69 -9 5 -36 14 -58 20 l-42 11 -11 78 c-7 42 -15 111 -20 152 -5
52 -10 69 -15 55 -4 -11 -12 -31 -17 -45 -5 -14 -37 -54 -71 -89 l-62 -64 -18
22 c-9 13 -20 39 -24 59 -3 20 -12 47 -20 59 -29 46 -12 216 37 383 12 41 22
91 23 110 1 31 -2 35 -27 38 -15 2 -39 -5 -55 -16 -15 -10 -35 -22 -45 -25
-10 -4 -17 -13 -15 -20 3 -14 -47 -67 -90 -95 -12 -8 -22 -22 -22 -32 0 -22
-91 -117 -125 -130 -35 -13 -82 -13 -108 2 -12 7 -26 13 -32 14 -5 0 -15 2
-21 2 -56 8 33 175 118 223 15 8 20 3 34 -28 14 -34 17 -36 24 -18 5 11 9 32
9 47 1 15 5 29 11 33 5 3 7 12 3 20 -3 8 4 25 16 37 58 64 91 112 91 133 0 13
5 27 10 30 13 8 13 35 0 35 -5 0 -10 -7 -10 -15 0 -8 -9 -15 -20 -15 -13 0
-20 -7 -20 -20 0 -20 -35 -41 -55 -34 -5 3 -10 29 -11 58 0 52 1 55 30 63 34
9 46 43 26 68 -6 8 -18 33 -25 57 -8 24 -23 68 -35 98 -12 30 -25 69 -29 86
-8 28 -37 83 -52 94 -7 5 -11 41 -10 93 0 33 30 76 53 77 9 0 19 4 22 9 9 13
-26 23 -38 11 -5 -5 -20 -10 -32 -10 -17 0 -24 -8 -29 -30 -4 -17 -11 -30 -16
-30 -5 0 -9 -10 -9 -22 0 -12 -7 -30 -17 -40 -15 -17 -15 -20 4 -41 35 -39 74
-137 68 -171 -4 -17 -2 -65 4 -106 14 -102 13 -100 39 -143 14 -21 21 -44 17
-56 -3 -10 -2 -29 3 -42 5 -13 6 -33 2 -44 -9 -22 -9 -21 -30 55 -7 25 -16 50
-21 56 -5 6 -14 38 -20 70 -6 33 -14 64 -19 69 -4 6 -11 33 -15 60 -7 54 -28
85 -55 85 -10 0 -34 13 -54 29 -29 23 -49 30 -112 36 -61 5 -74 10 -70 22 3 8
6 23 6 34 0 12 7 19 18 19 28 0 78 52 77 80 -3 56 -17 100 -34 101 -39 1 -92
9 -101 14 -6 4 -17 20 -25 36 -18 34 -9 59 31 86 32 21 190 24 249 5 44 -15
52 -18 141 -56 34 -14 69 -26 78 -26 28 0 56 -19 56 -39 0 -19 -29 -51 -46
-51 -27 0 -64 -28 -69 -51 -9 -41 29 -174 85 -291 27 -59 54 -109 59 -112 15
-10 35 3 61 40 14 20 44 57 68 82 24 26 57 67 73 92 16 25 36 54 44 65 8 10
15 25 15 32 0 7 5 13 10 13 6 0 10 16 10 35 0 48 -33 67 -124 74 -71 6 -71 6
-69 35 3 34 29 66 56 66 15 0 18 -5 14 -25 -5 -29 20 -47 83 -60 66 -13 80
-29 78 -87 0 -30 4 -54 10 -56 7 -2 1 -14 -13 -28 -28 -28 -31 -46 -11 -63 22
-18 60 22 52 55 -4 13 -2 32 2 41 36 72 43 92 40 109 -2 16 3 19 30 18 17 -1
32 2 32 8 0 10 -102 58 -125 58 -8 0 -15 5 -15 10 0 16 29 12 115 -14 110 -34
191 -54 247 -61 26 -3 50 -10 53 -16 9 -13 68 -11 117 5 24 8 86 26 138 40
118 33 150 45 152 60 0 6 2 16 3 21 2 6 3 13 4 17 0 4 13 0 28 -7 23 -12 31
-12 48 -1 11 7 52 19 90 26 39 7 74 17 80 22 5 4 27 8 50 8 23 0 45 4 50 9 6
5 27 14 48 21 20 6 37 16 37 21 0 5 15 9 33 9 18 0 37 4 42 9 11 11 175 69
298 106 42 13 82 27 88 31 6 4 25 10 43 14 17 4 76 24 131 43 155 54 221 62
475 61 396 -2 578 -36 691 -128 14 -11 43 -34 64 -51 56 -43 186 -211 251
-323 31 -53 66 -113 79 -132 22 -33 50 -83 120 -215 72 -134 158 -282 180
-311 23 -30 25 -31 75 -23 103 16 151 14 167 -6 7 -11 11 -25 9 -32 -3 -7 -1
-15 4 -18 6 -4 7 -17 4 -31 -5 -17 -2 -24 9 -24 21 0 31 -79 22 -175 -6 -65
-5 -75 9 -75 12 0 16 -10 17 -42 1 -35 2 -38 8 -18 9 33 23 11 20 -33 -3 -43
21 -118 44 -139 10 -9 16 -21 13 -26 -3 -6 1 -12 9 -16 8 -3 15 -15 15 -26 0
-11 7 -23 15 -26 8 -4 15 -14 15 -24 0 -9 11 -33 24 -53 13 -19 27 -44 31 -56
3 -12 10 -21 13 -21 4 0 16 -17 27 -37 11 -21 28 -47 38 -57 9 -11 17 -25 17
-31 0 -6 13 -29 30 -51 16 -21 30 -45 30 -53 0 -7 14 -30 30 -51 17 -21 30
-43 30 -49 0 -5 9 -15 20 -21 11 -6 20 -19 20 -29 0 -11 7 -21 15 -25 8 -3 15
-12 15 -21 0 -25 17 -17 25 12 6 26 -13 53 -37 53 -4 0 -8 13 -8 29 0 28 -33
97 -99 209 -17 29 -31 58 -31 65 0 7 -11 30 -25 52 -13 22 -25 48 -25 58 0 10
-7 20 -15 23 -8 4 -15 13 -15 21 0 8 -12 35 -26 60 -23 42 -39 129 -25 137 3
2 33 -3 66 -10 88 -19 105 -18 105 7 0 40 28 54 101 52 84 -3 116 -21 125 -71
9 -48 15 -57 25 -41 14 22 10 85 -5 98 -15 13 -30 65 -26 95 1 10 -12 38 -30
62 -17 24 -30 52 -28 62 2 11 -2 25 -8 33 -7 8 -22 43 -34 79 -12 36 -28 77
-36 92 -14 26 -20 87 -7 75 3 -4 21 4 38 17 27 21 44 25 101 25 127 0 448 -18
509 -28 80 -14 191 -14 255 1 l52 12 61 -63 c34 -34 69 -66 77 -71 20 -13 43
-13 35 0 -3 5 3 10 14 10 28 0 36 -18 17 -39 -17 -18 -22 -50 -8 -52 4 -1 18
-2 32 -3 29 -1 64 -24 73 -48 5 -14 15 -16 63 -11 63 7 314 -15 329 -28 5 -5
48 -9 95 -9 82 0 88 -1 114 -29 24 -25 28 -36 25 -78 -5 -97 39 -256 90 -323
15 -19 44 -61 66 -93 51 -76 172 -188 254 -237 33 -20 140 -64 215 -88 32 -11
66 -26 75 -33 12 -10 50 -14 141 -14 103 0 131 3 152 18 15 9 40 17 56 17 26
0 111 -34 122 -49 17 -23 76 -33 148 -27 42 4 109 9 147 12 105 7 123 11 151
37 14 13 49 31 78 40 51 17 54 19 84 85 36 78 56 179 48 237 -3 22 -3 45 2 51
14 22 80 34 242 44 168 11 394 38 530 65 209 40 379 58 455 48 38 -5 57 -14
82 -40 18 -18 33 -37 33 -42 0 -5 17 -19 38 -32 49 -29 92 -69 92 -86 0 -7 12
-16 28 -19 15 -4 32 -13 37 -20 6 -7 37 -27 70 -44 33 -17 67 -37 75 -44 8 -7
35 -21 59 -30 103 -40 241 -167 280 -256 13 -30 27 -62 31 -70 4 -8 15 -42 25
-75 10 -33 22 -65 26 -71 5 -5 15 -35 23 -65 24 -89 46 -163 56 -184 5 -11 11
-31 14 -45 3 -14 12 -47 20 -75 9 -27 22 -72 30 -100 8 -27 29 -95 46 -150 32
-101 35 -111 45 -177 l6 -38 594 0 595 0 0 60 c0 33 3 60 6 60 21 0 73 -35 76
-50 3 -18 4 -18 26 0 l23 19 -21 21 c-11 11 -25 18 -30 15 -5 -3 -26 1 -45 11
-32 15 -35 20 -35 60 l0 43 -42 4 -43 4 43 1 c35 2 42 5 42 23 0 30 22 47 65
51 26 2 42 10 53 25 14 23 14 23 -27 23 -42 0 -71 -17 -71 -40 0 -8 -6 -9 -17
-5 -40 18 -78 17 -100 -3 -14 -11 -46 -22 -80 -26 -32 -4 -92 -15 -133 -26
-41 -11 -96 -22 -122 -25 -27 -4 -48 -10 -48 -16 0 -5 -30 -9 -67 -9 -38 0
-99 -7 -138 -16 -66 -15 -73 -15 -119 2 -28 11 -50 26 -51 35 -4 24 -71 103
-96 111 -12 4 -12 9 -1 27 11 19 10 21 -12 21 -16 0 -27 7 -31 19 -3 11 -15
23 -26 26 -11 4 -19 15 -19 30 0 12 -6 25 -14 28 -8 3 -17 25 -21 49 -4 24
-14 55 -21 70 -8 15 -14 43 -14 63 0 24 -4 35 -15 35 -18 0 -22 76 -4 82 14 5
14 231 -1 236 -15 5 -12 79 3 85 9 3 6 15 -10 46 -13 24 -23 56 -23 71 0 34
-19 80 -32 80 -6 0 -7 17 -3 38 5 29 2 42 -9 52 -11 8 -16 29 -16 61 0 27 -4
49 -10 49 -5 0 -10 18 -10 40 0 33 -3 40 -20 40 -19 0 -25 20 -23 78 1 7 -17
30 -38 51 -21 21 -39 42 -39 47 0 21 -26 64 -37 64 -7 0 -13 3 -13 8 0 4 -13
14 -29 24 -16 9 -37 31 -47 50 -9 18 -25 40 -36 49 -10 10 -17 21 -16 26 2 5
-6 26 -17 46 -14 26 -26 37 -43 37 -18 0 -28 11 -45 50 -12 27 -27 50 -34 50
-15 0 -33 32 -33 56 0 10 -12 31 -27 46 -22 23 -25 31 -14 37 9 6 10 11 2 15
-6 4 -11 2 -11 -3 0 -6 -4 -11 -9 -11 -13 0 -18 66 -10 119 6 35 4 55 -9 83
-17 38 -35 48 -86 48 -45 0 -93 21 -107 47 -7 13 -20 23 -30 23 -9 0 -19 5
-21 11 -3 8 -79 41 -123 52 -5 1 -16 8 -24 15 -7 7 -23 12 -35 10 -11 -2 -25
1 -31 5 -5 5 -25 17 -42 27 -20 12 -33 28 -33 39 0 11 -4 23 -10 26 -5 3 -10
15 -10 25 0 26 -14 33 -65 32 -30 -1 -48 4 -60 18 -11 12 -37 22 -66 26 -27 4
-59 15 -71 26 -13 11 -35 26 -49 34 -21 10 -27 22 -31 59 -7 58 -23 78 -51 64
-16 -9 -23 -8 -32 5 -7 9 -26 16 -44 16 -29 0 -32 -2 -25 -22 10 -32 30 -57
83 -102 25 -21 62 -58 81 -81 19 -23 55 -58 80 -78 25 -20 95 -84 155 -142 61
-57 117 -105 125 -105 12 -1 11 -3 -3 -11 -11 -7 -16 -17 -12 -28 4 -15 -6
-22 -57 -41 -55 -20 -68 -21 -111 -11 -27 6 -70 11 -96 11 -38 0 -52 5 -71 25
-13 14 -29 25 -36 25 -7 0 -21 15 -32 34 -27 45 -90 73 -178 79 -39 2 -80 9
-92 16 -11 6 -34 11 -50 11 -80 0 -106 17 -215 138 -31 35 -42 41 -65 36 -20
-4 -47 4 -94 29 -63 33 -68 34 -112 23 -42 -11 -84 -36 -60 -36 6 0 16 -12 23
-27 11 -24 10 -29 -9 -45 -32 -26 -56 -22 -80 12 -23 33 -47 39 -57 15 -8 -23
-73 -47 -110 -41 -23 3 -33 1 -33 -8 0 -12 52 -56 67 -56 8 -1 119 -71 242
-153 39 -26 77 -57 84 -67 6 -11 17 -20 23 -20 6 0 17 -7 24 -15 7 -8 22 -15
34 -16 22 0 51 -17 107 -60 19 -14 50 -32 69 -39 19 -8 46 -22 59 -32 13 -10
27 -15 31 -13 5 3 11 1 15 -5 3 -5 17 -10 30 -10 13 0 27 -4 30 -10 3 -5 15
-10 26 -10 11 0 37 -9 57 -20 20 -11 63 -31 94 -45 31 -14 60 -30 63 -36 4 -5
19 -15 33 -21 l27 -10 -24 -11 c-17 -8 -26 -8 -28 -1 -2 6 -24 9 -57 6 -51 -4
-100 10 -166 49 -40 24 -61 28 -86 19 -33 -13 -161 -13 -169 0 -3 5 -19 10
-34 10 -20 0 -47 16 -92 57 -35 31 -67 60 -70 66 -4 5 -15 7 -25 5 -30 -7 -70
18 -85 54 -7 18 -20 40 -27 48 -17 16 -42 22 -42 10 0 -5 -14 -22 -31 -39 -30
-30 -30 -31 -15 -63 9 -18 41 -57 71 -86 30 -29 55 -59 55 -67 0 -7 12 -22 27
-33 l26 -19 -21 -23 c-26 -28 -134 -43 -167 -23 -11 6 -62 16 -114 21 -51 5
-96 14 -100 20 -3 5 -21 13 -39 17 -30 6 -73 24 -114 46 -10 5 -23 9 -29 9 -6
0 -17 7 -25 15 -9 8 -23 15 -33 15 -9 0 -32 16 -50 36 -19 19 -47 38 -62 41
-20 4 -31 13 -35 29 -3 13 -11 24 -18 24 -6 0 -24 18 -40 40 -16 21 -33 37
-37 34 -4 -2 -12 4 -18 14 -5 10 -26 30 -45 43 -28 19 -37 33 -42 67 -3 23
-10 42 -15 42 -4 0 -14 18 -20 40 -7 22 -14 38 -17 35 -8 -8 -31 28 -32 49 0
11 -4 33 -9 50 -30 95 -39 145 -28 149 9 3 9 10 0 30 -11 23 -19 27 -52 27
-22 0 -43 5 -46 10 -3 6 -14 10 -24 10 -13 0 -21 13 -29 52 -21 97 -21 122 -1
163 10 21 19 45 19 52 0 39 65 127 100 135 8 2 21 9 28 16 7 6 24 12 38 12 13
0 24 5 24 11 0 5 3 8 8 5 10 -6 47 22 39 30 -8 9 15 52 47 89 38 43 42 70 17
120 -36 73 -27 83 58 60 57 -17 59 -18 66 -59 4 -22 9 -35 12 -28 3 6 11 12
19 12 19 0 44 52 44 92 0 54 -51 138 -84 138 -17 0 -22 -16 -7 -22 13 -4 22
-90 12 -106 -6 -10 -13 -8 -33 7 -16 13 -28 17 -35 10 -5 -5 -38 -14 -74 -20
-67 -10 -144 -50 -203 -104 -18 -16 -58 -47 -87 -67 -30 -21 -60 -47 -67 -59
-22 -35 -42 -98 -32 -104 12 -7 3 -77 -11 -86 -10 -6 -10 -13 -2 -32 9 -20 9
-29 -2 -44 -19 -24 -19 -37 -1 -30 10 4 13 1 10 -7 -3 -8 -19 -17 -36 -20 -43
-9 -48 -8 -48 8 0 8 -4 16 -9 18 -6 2 -11 23 -13 47 -1 33 -7 45 -21 49 -10 2
-21 17 -24 33 -3 16 -9 26 -14 23 -5 -3 -9 3 -10 13 0 10 -2 27 -4 38 -14 91
-23 171 -18 178 3 5 6 22 7 38 1 17 6 34 12 37 5 4 19 28 32 53 13 26 39 62
57 80 19 19 35 39 35 44 2 31 79 92 145 114 22 8 43 19 47 25 4 6 12 12 18 12
5 1 12 2 15 3 11 2 -25 59 -40 65 -9 3 -28 3 -43 -1 -41 -10 -143 -71 -189
-114 -23 -21 -48 -39 -55 -39 -21 0 -90 -40 -108 -62 -36 -45 -80 11 -80 101
0 23 -6 70 -14 104 -21 92 -38 186 -43 240 -3 26 -9 47 -13 47 -11 0 -5 110 9
170 14 63 38 127 53 145 29 35 74 75 84 75 15 0 50 40 58 66 10 33 136 89 243
108 51 8 100 20 110 25 10 5 52 15 93 22 173 27 282 48 390 75 94 24 136 29
232 28 108 0 119 -2 142 -23 13 -12 38 -30 55 -39 17 -9 62 -44 101 -77 68
-58 76 -76 33 -80 -28 -3 -94 -46 -90 -59 3 -7 25 -10 60 -8 58 4 153 -11 197
-30 81 -35 93 -44 116 -92 13 -28 24 -56 24 -64 0 -8 14 -27 31 -43 39 -36 33
-54 -17 -55 -82 -3 -176 -24 -221 -48 -25 -14 -51 -26 -58 -26 -6 0 -22 -12
-36 -26 -13 -14 -31 -29 -40 -33 -29 -11 -99 -104 -99 -130 0 -19 3 -22 12
-13 8 8 18 5 41 -14 32 -27 38 -27 127 -3 111 29 154 66 133 112 -39 84 -38
97 7 97 28 0 63 -34 59 -56 -4 -22 2 -39 9 -28 9 14 139 76 170 81 26 4 93
-33 142 -80 76 -72 158 -136 291 -225 48 -31 102 -69 120 -85 18 -15 41 -28
51 -29 10 0 24 -1 31 -2 6 -1 14 -4 17 -7 3 -3 15 -12 27 -20 23 -16 99 -118
160 -214 78 -123 149 -320 219 -609 33 -134 44 -164 68 -188 36 -36 87 -58
137 -58 76 0 272 -76 334 -130 11 -10 36 -23 55 -29 19 -6 64 -29 100 -51 150
-91 239 -130 298 -130 25 0 42 -8 62 -30 l27 -29 12 22 c7 12 13 36 15 52 2
18 10 31 20 33 9 2 16 13 16 27 0 48 65 57 191 26 98 -24 122 -37 114 -61 -3
-11 -2 -34 3 -52 5 -18 5 -47 0 -64 -7 -29 -12 -32 -60 -38 -132 -15 -280 -1
-303 30 -8 11 -15 14 -15 7 0 -7 -7 -13 -15 -13 -25 0 -16 -13 37 -55 28 -22
77 -63 107 -91 45 -42 66 -54 111 -64 145 -31 196 -45 211 -57 8 -7 28 -13 44
-13 32 0 236 -78 304 -117 25 -14 58 -33 73 -40 15 -8 30 -18 33 -24 18 -28
75 9 75 48 0 22 -77 98 -140 138 -19 12 -69 56 -110 96 -41 41 -105 101 -141
134 -198 178 -198 179 -187 192 15 19 29 16 62 -12 43 -37 60 -29 64 27 3 41
-1 50 -31 81 -35 35 -73 47 -149 47 -43 0 -82 15 -122 48 -16 13 -54 36 -85
52 -31 15 -85 51 -120 79 -35 28 -69 51 -75 51 -6 1 -24 19 -41 41 -16 21 -42
53 -57 70 -16 17 -28 34 -28 38 0 13 -88 60 -145 76 -33 9 -73 25 -90 35 -25
15 -56 25 -162 55 -14 4 -113 149 -113 165 0 6 -17 32 -38 58 -21 26 -59 81
-85 122 -25 41 -68 102 -96 135 -85 101 -127 158 -151 205 -23 45 -40 65 -157
189 -35 36 -63 69 -63 73 0 13 -47 58 -61 58 -11 0 -11 2 1 10 12 8 12 12 0
37 -27 51 -78 129 -94 142 -9 7 -16 18 -16 24 0 5 -17 35 -38 66 -21 31 -58
92 -82 136 -24 44 -59 96 -79 116 -20 20 -63 67 -96 103 -33 36 -67 66 -76 66
-9 0 -47 20 -83 45 -37 25 -71 45 -75 45 -4 0 -18 11 -31 25 -13 14 -31 25
-40 25 -63 0 -250 152 -280 229 -9 22 -25 38 -47 47 -24 11 -33 20 -33 39 0
30 -14 39 -70 41 -25 2 -69 7 -97 11 -29 5 -53 6 -53 2 0 -5 -7 -6 -15 -3 -9
4 -13 13 -10 23 5 17 -29 50 -67 64 -10 3 -18 10 -18 15 0 5 -17 8 -37 7 -34
-1 -45 6 -96 57 -31 32 -60 58 -64 58 -4 0 -28 21 -53 48 -46 48 -109 93 -211
150 -68 39 -89 41 -89 8 0 -29 30 -44 42 -21 8 13 13 12 42 -7 107 -74 201
-198 194 -257 -3 -26 -4 -26 -88 -26 -60 1 -113 9 -180 27 -82 23 -121 27
-288 31 -106 3 -196 8 -199 11 -4 3 -17 -1 -31 -10 -14 -9 -34 -13 -47 -10
-18 5 -25 1 -30 -14 -7 -21 -46 -36 -65 -25 -6 4 -21 -2 -33 -14 -22 -20 -32
-21 -192 -22 -16 0 -52 -3 -80 -7 l-50 -8 3 -43 c3 -38 2 -42 -16 -37 -16 5
-22 -2 -36 -39 -20 -52 -39 -65 -95 -65 -30 0 -41 -4 -46 -19 -3 -11 -18 -24
-33 -29 -15 -6 -51 -28 -81 -51 -30 -23 -59 -41 -65 -41 -6 0 -22 -9 -36 -20
-54 -42 -100 -15 -102 58 -1 18 -5 35 -10 38 -4 3 -8 13 -8 22 0 9 -12 26 -27
36 -25 18 -28 19 -55 3 -41 -24 -79 -21 -123 8 -36 25 -38 25 -58 8 -12 -10
-32 -31 -45 -46 -37 -43 -72 -56 -148 -56 -54 0 -73 4 -89 19 -52 49 -216 66
-325 34 -31 -9 -67 -13 -86 -9 -42 7 -43 -4 -6 -46 24 -27 37 -33 86 -37 46
-4 61 -1 77 14 17 15 34 18 88 17 91 -4 124 -14 139 -47 8 -15 24 -31 36 -36
12 -4 35 -19 52 -32 16 -14 44 -31 62 -39 17 -8 32 -17 32 -21 0 -5 8 -8 18
-8 10 0 27 -6 37 -14 17 -12 18 -17 6 -54 -8 -23 -24 -51 -37 -63 -13 -12 -28
-37 -34 -55 -7 -19 -18 -34 -26 -34 -8 0 -23 -5 -33 -12 -15 -9 -34 -9 -84 0
-106 20 -320 15 -412 -8 -43 -11 -90 -20 -104 -20 -14 0 -41 -9 -59 -20 -18
-11 -40 -20 -50 -20 -20 0 -124 -50 -134 -65 -16 -21 -8 -45 15 -46 12 0 36
-9 52 -20 17 -10 37 -22 45 -26 22 -10 40 -30 40 -43 0 -7 7 -9 16 -6 9 4 22
2 29 -4 9 -7 16 -6 24 3 8 11 6 16 -13 25 -26 11 -51 68 -35 78 5 3 22 3 37
-1 24 -5 30 -2 40 20 9 19 19 25 43 25 21 0 37 8 50 24 16 20 33 25 111 34
121 15 286 3 303 -22 10 -13 22 -15 52 -10 35 5 41 3 57 -20 20 -32 17 -122
-8 -200 -8 -27 -13 -53 -10 -58 10 -16 -6 -59 -29 -81 -13 -12 -29 -41 -35
-64 -12 -40 -15 -42 -66 -53 -39 -8 -56 -17 -66 -34 -7 -13 -23 -30 -36 -37
-28 -15 -31 -37 -6 -45 9 -3 35 -14 57 -25 22 -10 46 -19 53 -19 18 0 32 -43
32 -98 0 -26 5 -65 10 -87 10 -43 -3 -97 -24 -94 -30 5 -46 -14 -46 -56 l0
-43 -67 -8 c-87 -11 -135 -7 -150 13 -6 8 -16 12 -22 8 -6 -3 -16 -3 -23 1 -7
4 -26 9 -43 11 -16 2 -35 10 -42 19 -6 8 -25 16 -43 16 -17 1 -36 8 -43 17 -7
9 -39 25 -73 36 -46 14 -65 26 -80 50 -10 16 -18 36 -19 43 0 8 -8 19 -17 26
-28 21 -70 127 -74 186 -1 30 -3 58 -3 63 -1 4 -14 7 -29 7 -24 0 -32 7 -48
40 -10 22 -22 40 -26 40 -4 0 -14 16 -23 35 -8 20 -21 43 -30 51 -8 9 -15 29
-15 45 0 17 -4 28 -9 24 -11 -6 -161 139 -161 155 0 5 -7 10 -15 10 -9 0 -21
12 -28 28 -6 15 -20 33 -29 40 -10 7 -18 19 -18 26 0 7 -14 25 -31 42 -27 25
-30 34 -25 67 6 34 -7 53 -17 25 -2 -7 -9 18 -16 56 -7 39 -21 88 -31 111 -16
36 -46 205 -48 275 -8 256 -7 314 5 337 7 14 13 33 13 42 0 9 18 27 40 41 22
14 47 40 56 60 24 52 44 70 75 70 15 0 31 5 34 10 3 6 17 10 31 10 13 0 29 9
36 20 11 16 24 20 75 20 34 0 89 -7 123 -16 39 -10 66 -12 73 -6 7 5 24 12 38
16 34 8 51 -12 47 -56 -3 -32 -5 -33 -50 -36 -49 -3 -57 -9 -36 -30 17 -17
133 -15 161 2 12 8 41 17 63 21 27 4 51 17 70 36 15 16 34 29 41 29 8 0 29 7
48 14 32 14 34 17 25 40 -12 32 -4 33 22 4 26 -31 54 -14 50 31 -2 17 1 31 7
31 6 0 11 -8 11 -17 0 -13 12 -4 40 27 22 25 40 49 40 53 0 5 13 25 28 45 45
59 53 84 32 109 -14 18 -29 22 -96 23 -43 1 -97 -1 -120 -5 -36 -6 -44 -4 -65
18 -27 29 -116 48 -218 48 -31 -1 -98 2 -148 5 -96 7 -94 5 -97 53 -1 20 -26
26 -36 10 -7 -10 -16 -10 -44 -2 -29 9 -36 8 -36 -2 0 -8 17 -16 40 -20 47 -8
59 -20 27 -29 -33 -9 -44 -7 -27 4 12 8 10 10 -11 10 -34 0 -70 39 -62 68 4
19 1 22 -21 22 -14 0 -26 3 -26 8 0 34 -23 179 -31 194 -5 10 -14 58 -18 106
-7 77 -6 90 11 111 10 13 18 38 18 55 0 44 16 56 76 56 35 0 65 8 96 24 36 19
72 26 184 36 76 6 141 15 144 20 3 4 26 11 53 15 36 6 53 3 72 -9 13 -9 37
-16 53 -16 22 0 41 -13 78 -50 40 -41 54 -50 76 -47 19 2 34 -4 50 -20 16 -18
32 -23 69 -23 30 0 51 -6 59 -15 24 -28 71 -57 107 -65 28 -7 45 -3 84 16 27
14 49 29 49 33 0 5 28 20 63 34 67 27 128 29 230 9 39 -7 51 -6 64 6 14 14 14
17 -1 27 -9 7 -16 15 -16 19 0 12 79 6 87 -7 13 -20 61 -37 106 -37 43 0 73
-18 131 -76 32 -33 58 -188 71 -420 3 -56 10 -115 14 -132 7 -22 5 -36 -4 -49
-13 -17 -16 -17 -62 8 -45 24 -58 26 -203 29 -196 4 -230 3 -246 -11 -7 -6
-46 -15 -86 -21 -40 -5 -84 -12 -98 -15 -14 -3 -40 -6 -59 -7 -58 -2 -59 -20
-12 -157 44 -130 86 -207 125 -233 13 -8 68 -34 122 -56 86 -36 109 -41 170
-41 74 1 124 13 124 30 0 6 6 8 13 6 6 -3 19 -1 27 5 12 7 12 12 2 22 -10 10
-19 9 -45 -5 -31 -17 -67 -15 -67 4 0 5 -11 9 -25 9 -28 0 -35 20 -7 20 9 1
35 8 57 16 54 20 68 23 80 14 6 -4 54 -13 109 -20 112 -13 116 -12 116 53 0
21 7 54 16 75 8 20 17 64 20 97 2 33 9 92 14 130 6 39 12 103 15 142 2 40 8
81 14 90 9 18 0 145 -20 273 -6 36 -13 97 -17 136 -5 48 -13 79 -25 92 -11 11
-23 35 -27 54 -33 124 -54 186 -79 222 -16 22 -44 73 -64 111 -32 63 -116 175
-138 183 -5 2 -9 8 -9 14 0 18 -71 108 -85 108 -7 0 -33 19 -57 43 -60 60
-149 115 -205 128 -26 5 -74 21 -108 34 -33 13 -87 31 -120 41 -33 9 -72 23
-87 30 -61 31 -199 36 -503 16 -188 -11 -246 -21 -295 -48 -14 -7 -54 -25 -90
-39 -99 -39 -211 -99 -246 -130 -6 -5 -28 -23 -49 -40 -21 -16 -49 -40 -62
-52 -13 -13 -28 -23 -33 -23 -10 0 -78 -40 -189 -112 -41 -26 -77 -49 -81 -50
-4 -2 -37 -42 -73 -89 -72 -93 -85 -103 -120 -90 -21 8 -35 6 -67 -7 -8 -3
-27 -6 -42 -7 -22 0 -28 4 -28 21 0 24 29 54 54 54 22 0 76 40 76 56 0 21 -39
27 -64 10 -31 -20 -66 -10 -66 19 0 12 11 43 25 68 23 44 23 47 6 56 -15 9
-19 30 -25 153 -11 206 -13 222 -30 263 -9 21 -16 50 -16 65 0 15 -12 54 -26
86 -14 33 -37 90 -50 128 -23 70 -79 171 -118 215 -12 12 -55 40 -96 61 -41
22 -88 48 -105 60 -16 11 -58 29 -93 40 -35 11 -91 33 -125 48 -35 16 -87 37
-118 45 -61 18 -89 38 -110 79 -8 15 -55 69 -104 120 -50 51 -117 122 -150
158 -33 36 -75 75 -94 88 -55 38 -245 219 -317 302 -17 19 -39 40 -50 46 -10
6 -36 44 -56 85 -43 85 -63 116 -135 206 -29 36 -53 69 -53 72 0 4 -14 18 -31
30 -25 19 -33 21 -40 10 -6 -10 -9 -11 -9 -1 0 6 -8 12 -18 12 -10 0 -49 16
-86 35 -38 19 -75 35 -83 35 -8 0 -24 11 -34 24 -13 17 -34 27 -64 32 -25 3
-45 10 -45 15 0 5 -12 9 -27 9 -16 1 -55 7 -88 15 -70 17 -93 17 -160 0z
m-2551 -1356 c-1 -69 -5 -93 -21 -120 -12 -19 -37 -67 -58 -106 -34 -68 -38
-72 -66 -69 -17 2 -37 10 -45 18 -13 12 -13 19 0 49 9 19 15 28 16 21 0 -8 6
-12 13 -9 7 2 12 21 12 43 0 32 3 39 20 39 14 0 21 8 23 28 2 15 7 27 12 27
20 0 21 40 1 62 -12 12 -21 27 -21 34 0 20 39 62 63 67 50 10 52 7 51 -84z
m2965 -123 c6 -7 32 -16 58 -20 26 -3 66 -16 90 -27 24 -12 50 -18 58 -15 10
4 15 -1 15 -14 0 -11 4 -20 8 -20 5 0 19 -9 32 -20 13 -11 34 -20 47 -20 26 0
64 -19 76 -37 4 -7 20 -13 36 -13 19 0 39 -12 67 -42 56 -60 112 -108 127
-108 7 0 30 -16 52 -35 22 -19 43 -35 47 -35 5 0 8 -8 8 -18 0 -10 20 -41 45
-68 25 -27 51 -60 58 -73 12 -24 25 -34 62 -46 14 -5 16 -9 7 -12 -10 -4 -8
-11 9 -29 12 -13 28 -24 35 -24 21 0 28 -22 10 -32 -9 -5 -16 -15 -16 -22 0
-18 -46 -49 -126 -85 -38 -18 -76 -36 -84 -42 -8 -5 -28 -17 -44 -27 -57 -33
-93 -72 -104 -110 -17 -55 -15 -98 5 -135 10 -18 21 -66 25 -107 4 -41 8 -80
9 -87 3 -14 31 -5 42 14 16 26 45 14 57 -23 l12 -36 62 6 c256 26 270 33 282
135 6 58 8 61 34 61 37 0 49 -18 57 -79 5 -47 9 -53 39 -66 18 -7 39 -23 45
-34 10 -15 17 -17 32 -9 10 5 29 7 41 4 25 -6 96 -67 96 -82 0 -6 9 -19 20
-29 11 -10 20 -22 20 -27 0 -5 4 -14 10 -21 47 -58 63 -83 98 -157 22 -47 53
-119 68 -160 14 -41 33 -84 40 -95 8 -11 14 -29 14 -42 0 -12 5 -25 11 -29 6
-3 8 -17 4 -33 -4 -14 -8 -76 -10 -137 -1 -60 -7 -119 -13 -130 -6 -10 -21
-53 -33 -94 -11 -41 -29 -91 -39 -110 -10 -19 -35 -70 -56 -112 -21 -43 -41
-78 -46 -78 -4 0 -8 -8 -8 -19 0 -10 -7 -24 -15 -31 -8 -7 -15 -23 -15 -35 0
-13 -5 -25 -11 -27 -7 -2 -13 -17 -15 -32 -2 -15 -9 -33 -17 -39 -14 -12 -59
-147 -72 -217 -28 -156 -57 -274 -76 -310 -42 -81 -130 -167 -189 -185 -14 -4
-39 -18 -57 -31 -17 -13 -37 -24 -44 -24 -16 0 -72 -18 -124 -39 -31 -12 -74
-16 -195 -16 -142 1 -161 3 -225 27 -38 14 -71 31 -73 37 -2 6 -14 11 -27 11
-12 0 -28 7 -35 15 -7 8 -23 15 -35 15 -13 0 -26 7 -29 16 -3 8 -10 13 -15 9
-5 -3 -12 -1 -16 4 -3 6 -13 7 -21 4 -10 -4 -25 4 -39 21 -12 14 -27 26 -33
26 -5 0 -12 6 -15 14 -3 8 -23 20 -44 26 -50 16 -72 37 -66 60 3 12 -1 22 -11
26 -9 3 -16 12 -16 20 0 8 -4 14 -9 14 -5 0 -11 9 -13 21 -3 24 -79 57 -138
61 -19 1 -41 6 -47 11 -9 6 -13 6 -13 -2 0 -6 -8 -3 -18 7 -16 16 -41 20 -153
24 -74 3 -154 5 -179 3 -34 -2 -47 1 -57 15 -7 9 -25 18 -40 18 -17 0 -34 9
-48 26 -11 14 -25 26 -30 26 -22 0 -85 36 -90 51 -3 9 -21 27 -39 40 -18 12
-44 38 -57 58 -13 20 -26 38 -29 41 -14 13 -119 241 -130 280 -7 25 -21 61
-31 81 -11 20 -19 46 -19 58 0 24 -57 177 -74 200 -6 7 -11 19 -11 25 -2 24
-19 71 -28 77 -12 8 -10 233 2 256 16 30 51 125 51 137 0 6 11 28 25 49 14 20
23 37 20 37 -3 0 0 12 9 28 8 15 20 43 27 62 7 19 19 41 26 48 7 7 13 24 13
38 0 31 76 142 110 162 14 8 33 25 43 38 15 21 16 24 2 24 -10 0 -15 9 -15 28
0 15 -4 33 -9 41 -5 8 -4 24 4 40 8 14 27 55 44 91 18 36 58 97 91 135 33 39
63 81 67 95 3 14 23 53 44 87 21 35 40 71 44 82 3 10 12 22 20 25 8 3 15 14
15 24 0 11 6 25 14 31 7 6 16 33 20 59 19 152 41 202 88 202 12 0 18 7 18 21
0 59 63 115 168 149 23 7 42 19 42 27 0 20 38 53 53 47 18 -6 41 21 34 40 -3
8 3 22 13 31 10 9 17 22 14 29 -10 27 21 45 84 49 35 2 68 9 74 15 15 15 23
15 37 -2z m1609 -106 c15 -16 54 -57 87 -91 36 -37 60 -70 60 -84 1 -13 18
-42 39 -65 33 -37 76 -116 76 -141 0 -19 -31 -8 -42 16 -6 14 -25 29 -44 35
-32 11 -47 30 -24 30 20 0 9 30 -25 66 -19 20 -35 44 -35 53 0 21 -54 81 -73
81 -8 0 -21 7 -28 16 -12 15 -11 16 9 10 23 -8 28 0 13 23 -5 7 -14 10 -20 7
-7 -5 -10 -2 -9 6 2 7 -8 14 -22 16 -45 7 -66 36 -32 45 35 9 44 6 70 -23z
m-5354 -2805 c20 -8 36 -21 36 -28 0 -8 3 -7 9 2 8 12 11 8 16 -15 4 -16 11
-42 15 -57 11 -34 -8 -46 -45 -29 -21 10 -26 8 -35 -9 -6 -11 -8 -29 -5 -39 4
-12 2 -20 -4 -20 -6 0 -11 -7 -11 -16 0 -12 -6 -15 -22 -10 -13 3 -27 6 -31 6
-5 0 -5 9 -2 20 4 12 1 28 -6 36 -7 8 -12 31 -12 50 0 28 5 38 24 47 17 9 25
22 27 45 2 17 5 32 6 32 2 0 20 -7 40 -15z m3286 -702 c14 -9 39 -28 55 -43
21 -20 45 -29 84 -34 30 -4 71 -16 92 -27 21 -10 48 -19 59 -19 11 0 23 -7 26
-15 4 -10 20 -15 44 -15 22 0 41 -4 44 -9 3 -5 36 -14 73 -20 72 -13 120 -26
168 -47 36 -15 178 -36 198 -28 20 7 36 -36 25 -66 -10 -25 -20 -97 -19 -136
0 -12 -8 -29 -18 -38 -11 -10 -32 -56 -47 -104 -15 -48 -31 -89 -34 -92 -13
-10 -67 -116 -74 -145 -21 -91 -24 -126 -12 -149 11 -22 14 -23 38 -10 15 8
29 23 33 34 5 17 39 63 88 120 7 8 19 27 26 42 7 14 24 29 37 32 13 4 28 15
34 26 6 11 18 20 26 20 19 0 71 -53 66 -68 -1 -5 13 -15 32 -22 32 -10 36 -15
36 -46 0 -64 21 -125 46 -134 12 -5 28 -18 34 -30 6 -11 18 -20 27 -20 19 0
73 -54 73 -73 0 -35 -85 -94 -179 -123 -78 -25 -302 -30 -433 -9 -168 25 -476
120 -583 179 -148 82 -294 168 -365 217 -36 25 -73 48 -82 52 -9 3 -52 29 -94
57 -42 28 -91 58 -108 67 -35 18 -80 53 -86 68 -2 6 9 12 25 15 34 6 36 21 6
36 -11 6 -29 18 -38 26 -10 9 -29 18 -43 20 -21 2 -25 8 -22 31 1 15 -2 27 -8
27 -19 0 -10 16 18 32 16 10 49 22 75 28 40 9 96 38 134 70 7 5 28 17 47 27
20 9 36 20 36 25 0 4 5 8 11 8 7 0 33 13 58 28 26 16 90 38 149 52 l102 24 0
39 c0 42 18 67 48 67 15 0 21 9 26 35 8 40 12 41 46 18z m-1548 -1660 c17 -15
19 -15 36 0 25 23 41 21 69 -5 18 -17 26 -19 35 -10 17 17 44 15 62 -3 12 -12
20 -13 35 -5 28 15 45 13 70 -10 21 -18 25 -18 47 -4 22 15 25 14 49 -10 27
-27 26 -39 -4 -56 -14 -7 -25 -4 -46 12 -20 15 -29 18 -38 9 -16 -16 -48 -14
-69 6 -16 14 -22 15 -36 5 -34 -24 -43 -24 -68 -1 -21 20 -28 21 -44 11 -27
-16 -33 -15 -59 9 l-23 21 -28 -27 c-25 -24 -30 -25 -49 -13 -23 14 -28 57 -9
76 17 17 48 15 70 -5z m4964 -368 c10 -8 26 -15 35 -15 8 0 28 -13 44 -30 31
-33 58 -40 48 -14 -10 27 31 9 147 -65 126 -79 128 -81 202 -152 53 -53 75
-66 191 -118 52 -24 158 -68 211 -87 22 -8 59 -27 83 -41 l45 -26 54 23 c53
21 214 43 214 29 0 -15 -32 -39 -50 -39 -25 0 -33 -15 -21 -38 17 -32 -3 -45
-83 -50 -68 -4 -88 -1 -208 37 -174 55 -332 111 -440 155 -143 59 -167 52
-356 -105 -18 -15 -24 -7 -29 38 -2 21 -10 45 -18 54 -8 8 -15 24 -15 33 0 20
-29 146 -65 280 -14 49 -22 93 -19 98 3 4 1 8 -4 8 -6 0 -8 9 -5 20 6 24 13
25 39 5z m4148 -194 c3 -4 19 -11 36 -14 53 -11 120 -47 162 -87 22 -22 44
-40 49 -40 13 0 11 -34 -3 -48 -7 -7 -40 -12 -77 -12 -51 0 -72 5 -98 23 -18
12 -33 26 -33 31 0 6 -11 26 -24 45 -27 40 -45 111 -28 111 6 0 13 -4 16 -9z
m-2055 -347 c17 -14 31 -32 31 -40 0 -9 3 -13 8 -10 4 2 12 -7 19 -20 6 -13 7
-22 2 -18 -5 3 -9 -2 -9 -10 0 -9 5 -15 12 -13 12 2 14 -4 17 -42 0 -11 12
-33 26 -48 21 -25 24 -26 25 -8 0 14 3 16 12 7 9 -9 9 -17 -1 -36 -13 -24 -15
-24 -125 -20 -61 2 -120 6 -132 10 -15 4 -25 -2 -39 -22 -17 -27 -17 -28 5
-46 l22 -18 -33 0 c-23 0 -38 6 -47 20 -10 16 -10 20 0 20 15 0 19 106 5 128
-8 12 17 57 47 81 8 7 17 24 21 39 6 29 58 72 87 72 9 0 30 -12 47 -26z m387
-574 c13 0 64 -87 64 -111 0 -6 15 -32 33 -57 46 -67 47 -67 105 -128 46 -49
52 -61 52 -97 0 -36 4 -44 28 -54 28 -13 62 -62 62 -91 0 -8 6 -23 14 -31 15
-18 36 -76 36 -99 0 -37 -141 19 -263 106 -163 116 -276 283 -278 410 -1 61
25 136 49 138 6 1 26 2 42 3 24 1 30 6 31 24 1 16 2 18 6 5 2 -10 11 -18 19
-18z m-7083 -410 c17 0 27 -5 27 -15 0 -14 -9 -17 -57 -19 -17 -1 -42 -23 -43
-37 0 -4 12 -18 26 -33 25 -25 26 -27 10 -44 -9 -10 -16 -24 -16 -30 0 -21
-23 -25 -38 -6 -10 13 -16 15 -19 7 -5 -13 -60 -18 -87 -7 -22 9 -20 27 9 70
14 20 25 45 25 56 0 10 8 30 17 45 15 23 21 25 67 19 28 -3 63 -6 79 -6z
m7598 -143 c14 -13 28 -30 31 -38 4 -9 20 -19 37 -22 37 -8 59 -48 32 -58 -26
-10 -172 -2 -184 10 -6 6 -11 34 -12 63 0 47 2 53 25 59 39 11 43 10 71 -14z
m-7234 -243 c3 -9 0 -20 -7 -24 -9 -5 -11 -21 -7 -49 6 -49 -3 -57 -34 -32
-18 14 -28 17 -43 9 -10 -5 -29 -8 -42 -5 -14 2 -27 0 -30 -4 -8 -13 -44 -11
-44 3 0 6 -8 1 -19 -10 -10 -13 -30 -22 -45 -22 -25 0 -27 -2 -21 -30 8 -36
-4 -38 -40 -7 -24 21 -25 25 -16 71 5 30 16 53 27 60 23 13 64 15 64 3 0 -5 6
-7 14 -4 8 3 20 -1 27 -9 6 -8 20 -12 30 -9 11 4 19 0 22 -12 3 -15 6 -13 15
10 6 15 17 28 24 28 7 1 18 2 23 4 6 1 22 3 38 3 20 2 27 7 27 22 0 24 28 27
37 4z m529 -42 c27 -25 71 -95 62 -98 -1 -1 5 -10 14 -21 16 -17 16 -20 -1
-42 -38 -50 -161 -5 -161 58 0 33 19 102 32 119 15 17 22 15 54 -16z"/>
<path d="M4170 7495 c-58 -6 -123 -19 -145 -29 -87 -38 -111 -49 -125 -60 -8
-7 -48 -23 -88 -35 -68 -22 -160 -76 -148 -88 3 -3 24 4 48 15 49 23 75 29
173 42 39 5 92 14 118 19 68 15 257 8 267 -9 7 -11 11 -11 25 0 11 9 19 10 23
3 4 -5 20 -13 36 -17 32 -8 105 12 86 24 -7 5 1 14 24 28 37 22 48 52 20 52
-9 0 -28 13 -42 28 -23 25 -36 29 -97 34 -38 2 -117 -1 -175 -7z"/>
<path d="M4258 7299 c-14 -10 -44 -21 -65 -23 -21 -3 -76 -21 -123 -41 -155
-66 -225 -98 -230 -104 -3 -3 -23 -19 -45 -35 -54 -39 -115 -98 -115 -111 0
-5 -12 -21 -26 -34 -30 -29 -27 -44 12 -51 16 -3 29 -11 29 -17 0 -31 63 -45
150 -34 46 6 50 8 47 30 -2 22 11 40 30 41 3 0 20 -12 37 -26 31 -26 32 -26
119 -16 117 14 165 25 165 37 0 6 4 21 9 35 6 14 11 45 12 70 2 32 7 46 19 48
24 5 54 -15 73 -48 24 -39 43 -45 73 -22 15 10 34 21 44 25 25 9 22 19 -23 61
-22 21 -40 33 -40 26 0 -6 -4 -8 -10 -5 -22 14 -10 31 20 27 43 -6 47 17 11
71 -17 25 -31 50 -31 56 0 6 -6 11 -14 11 -8 0 -13 8 -12 17 0 10 -4 18 -11
18 -6 0 -15 3 -19 8 -14 13 -59 7 -86 -14z m20 -119 c1 0 2 -7 2 -16 0 -11 -6
-15 -19 -11 -11 3 -41 1 -68 -4 -96 -18 -158 -33 -163 -38 -7 -8 -115 -61
-124 -61 -5 0 -20 -9 -36 -20 -15 -11 -30 -17 -33 -13 -4 3 -9 -2 -13 -11 -3
-9 -12 -16 -20 -16 -19 0 -18 16 2 24 8 3 12 10 9 16 -3 5 -2 10 3 10 6 0 29
19 53 43 80 78 183 110 334 102 39 -2 71 -4 73 -5z"/>
<path d="M5083 6470 c-18 -4 -49 -22 -70 -39 -21 -17 -42 -35 -48 -39 -56 -43
-75 -53 -83 -48 -6 3 -13 2 -16 -3 -4 -5 4 -13 16 -17 41 -13 107 -5 149 18
98 54 136 71 172 76 68 9 36 40 -58 55 -16 3 -44 2 -62 -3z"/>
<path d="M5839 6258 c-1 -7 -1 -20 0 -28 0 -8 -2 -19 -7 -25 -12 -16 -70 -55
-83 -55 -6 0 -23 -9 -39 -20 -15 -11 -30 -17 -33 -13 -4 3 -13 1 -20 -6 -8 -6
-50 -20 -93 -31 -43 -11 -105 -33 -137 -50 -32 -16 -69 -30 -82 -30 -13 0 -77
-18 -143 -39 -65 -22 -136 -43 -158 -46 -21 -4 -91 -24 -154 -45 -173 -57
-270 -60 -270 -10 0 21 -24 4 -55 -38 -16 -22 -35 -41 -41 -41 -6 -1 -24 -11
-39 -22 -28 -23 -28 -24 -9 -116 3 -18 10 -30 15 -27 5 3 7 10 4 15 -4 5 -1 9
4 9 6 0 11 -5 11 -12 0 -6 7 -3 15 8 12 15 14 16 15 3 0 -9 12 -22 26 -30 23
-12 27 -11 39 4 7 9 21 29 31 43 29 39 78 62 144 70 52 6 62 10 73 33 10 22
20 27 72 32 51 6 63 4 87 -15 15 -11 27 -31 27 -43 1 -19 7 -23 35 -23 46 0
51 11 26 57 -28 53 -25 67 18 88 20 9 50 24 65 31 16 8 37 14 47 14 10 0 21 4
24 8 3 5 28 10 56 11 44 1 50 -1 50 -19 0 -11 -4 -20 -10 -20 -14 0 -13 -33 2
-67 17 -38 16 -38 35 -22 10 8 44 23 76 34 54 17 58 21 54 44 -3 14 -1 35 3
46 11 28 68 85 85 85 8 0 26 12 40 26 29 28 48 28 53 -3 2 -11 18 -27 39 -37
l36 -17 22 27 c20 25 24 26 55 16 50 -18 60 -15 76 23 16 38 19 125 5 125 -5
0 -12 18 -16 39 -7 42 -17 54 -52 65 -16 5 -23 3 -24 -6z"/>
<path d="M12235 9247 c-41 -30 -75 -65 -75 -77 0 -51 -70 -99 -173 -120 -47
-9 -67 -20 -102 -55 -25 -24 -45 -47 -45 -52 0 -5 -16 -17 -36 -28 -20 -11
-39 -27 -43 -36 -3 -10 -35 -49 -71 -87 -90 -98 -127 -147 -152 -204 -11 -26
-24 -48 -28 -48 -4 0 -11 -11 -14 -25 -3 -13 -16 -30 -29 -36 -32 -16 -103
-95 -124 -138 -10 -20 -26 -47 -35 -61 -20 -30 -57 -300 -58 -425 -1 -166 30
-361 67 -422 11 -19 11 -28 -3 -63 -15 -38 -15 -42 1 -61 10 -10 22 -43 26
-72 5 -28 13 -80 18 -115 10 -65 -5 -218 -28 -275 -6 -16 -11 -47 -11 -69 0
-31 -3 -38 -12 -31 -18 14 -50 7 -65 -13 -18 -25 -16 -31 12 -50 22 -14 25
-23 25 -75 0 -32 -5 -61 -11 -65 -6 -3 -8 -16 -5 -27 3 -14 -3 -30 -18 -47
-27 -29 -39 -60 -28 -75 4 -5 29 -21 57 -35 29 -15 51 -34 54 -45 2 -11 23
-42 48 -70 34 -39 43 -56 39 -76 -3 -14 -2 -36 1 -49 5 -19 11 -22 43 -17 55
7 62 -1 62 -82 1 -63 3 -71 20 -71 37 0 68 -30 68 -66 0 -23 6 -37 19 -44 31
-16 51 -12 51 10 0 24 41 28 60 5 12 -14 9 -134 -5 -215 l-7 -35 96 -16 c53
-8 96 -12 96 -7 0 13 67 9 78 -4 5 -7 13 -28 17 -45 8 -38 14 -40 43 -13 47
44 73 12 65 -81 l-5 -56 32 5 c17 2 34 11 37 18 6 16 49 19 58 4 4 -6 16 -10
28 -8 15 2 22 -4 27 -22 5 -22 13 -26 60 -32 44 -5 59 -13 87 -42 40 -42 43
-43 36 -16 -3 11 -1 20 5 20 5 0 13 11 16 25 6 25 8 25 59 -31 56 -62 121 -97
197 -107 30 -4 38 -3 24 3 -24 10 -33 41 -24 85 4 17 2 39 -4 50 -15 30 -16
54 -4 120 6 36 18 67 29 77 11 9 19 28 19 42 0 14 5 26 10 26 6 0 10 10 10 23
0 13 13 36 29 51 16 16 32 40 36 55 9 35 23 51 47 51 10 0 21 6 24 14 3 8 17
17 32 21 15 4 48 22 74 41 27 19 53 34 58 34 6 0 18 8 29 19 10 10 26 23 34
27 32 19 229 195 287 257 39 41 98 76 118 70 6 -3 12 4 13 14 0 15 2 15 7 3
13 -28 67 -90 79 -90 7 0 17 -10 24 -22 15 -30 89 -98 106 -98 8 0 12 4 9 9
-3 5 14 6 39 4 33 -4 48 -1 61 11 9 10 24 14 35 11 12 -4 21 -1 25 9 3 9 10
13 15 10 5 -3 9 0 9 6 0 6 11 15 25 20 14 5 25 14 25 20 0 5 13 7 30 4 36 -8
33 -27 34 197 1 158 3 179 20 198 13 15 20 39 22 88 2 38 6 102 11 143 16 165
9 196 -101 424 -36 75 -66 141 -66 146 0 5 -7 16 -17 25 -9 9 -18 39 -21 68
-6 69 -15 78 -71 75 -44 -3 -46 -2 -49 25 -2 16 2 35 9 43 13 15 76 17 95 2
15 -11 -5 77 -37 165 -27 76 -22 103 16 85 33 -15 40 -6 27 31 -12 34 -2 47
25 33 41 -21 145 -52 155 -46 6 4 -14 31 -46 63 -30 31 -56 59 -56 63 -1 17
-15 45 -40 83 -44 66 -100 187 -100 217 0 26 2 28 21 17 23 -12 21 -2 -6 31
-16 20 -36 80 -30 90 6 10 85 -17 106 -36 21 -19 35 -18 19 1 -10 12 -10 15 4
15 9 0 16 2 16 5 0 12 -105 151 -127 168 -25 20 -48 56 -40 63 3 3 26 -7 51
-21 26 -15 65 -33 88 -41 36 -12 39 -12 28 1 -7 8 -40 29 -74 45 -106 53 -199
122 -225 169 -13 23 -21 44 -18 47 12 12 74 -32 145 -102 80 -78 138 -107 64
-31 -40 41 -53 67 -33 67 6 0 13 -4 16 -10 3 -5 10 -10 15 -10 19 0 -44 117
-83 154 -23 21 -80 57 -127 79 -82 39 -89 41 -193 42 -59 1 -110 5 -113 8 -4
3 9 15 27 26 25 15 50 21 94 20 58 0 86 -4 208 -29 75 -15 89 -9 44 18 -29 17
-177 52 -219 52 -21 0 -4 19 30 32 l37 14 -34 2 c-36 1 -136 -32 -161 -54 -8
-7 -35 -14 -58 -17 -35 -3 -48 0 -63 16 -17 19 -20 19 -37 4 -28 -26 -50 -21
-54 11 -3 29 1 29 -110 16 -34 -4 -53 -1 -70 10 -25 18 -58 21 -58 6 0 -22
-49 -22 -81 1 -23 16 -44 22 -75 20 -26 -1 -53 4 -67 14 -28 18 -174 37 -197
26 -38 -20 -83 -20 -128 -2 -26 11 -74 22 -107 24 -51 5 -65 2 -90 -16z m538
-719 c12 -6 28 -19 35 -30 7 -10 24 -18 37 -18 33 0 71 -16 94 -39 10 -10 43
-24 73 -30 47 -10 56 -16 76 -51 12 -22 29 -40 37 -40 8 0 15 -7 15 -14 0 -8
15 -27 34 -41 19 -14 46 -50 62 -80 15 -30 31 -55 35 -55 4 0 11 -10 15 -22 4
-13 17 -36 30 -51 13 -16 24 -41 24 -56 0 -16 11 -40 25 -55 14 -15 39 -54 56
-87 17 -32 35 -62 40 -65 5 -3 9 -14 9 -26 0 -11 6 -32 14 -46 25 -49 76 -181
76 -200 0 -10 4 -22 9 -27 8 -10 25 -100 53 -290 22 -154 17 -392 -13 -500 -6
-22 -12 -47 -13 -55 -14 -79 -32 -108 -133 -208 -57 -56 -103 -107 -103 -112
0 -6 -8 -10 -18 -10 -10 0 -26 -16 -37 -37 -11 -21 -46 -64 -78 -95 -56 -56
-100 -78 -156 -78 -23 0 -112 -42 -141 -67 -41 -35 -79 -63 -85 -63 -3 0 -23
-13 -43 -29 -38 -31 -91 -48 -171 -58 -25 -3 -53 -9 -62 -14 -20 -10 -193 -14
-209 -4 -7 4 -29 10 -49 12 -20 3 -41 11 -47 19 -6 8 -18 14 -26 14 -36 0 -87
32 -131 81 -26 29 -47 57 -47 64 0 6 -18 28 -40 49 -22 21 -38 42 -34 47 3 5
-1 12 -9 15 -9 3 -18 16 -21 30 -4 15 -16 26 -33 30 -14 4 -35 14 -45 23 -32
27 -112 131 -114 149 -2 9 -10 22 -18 28 -9 6 -17 22 -19 34 -4 24 -15 33 -50
44 -11 4 -21 15 -24 26 -3 11 -9 20 -14 20 -5 0 -14 12 -20 28 -10 25 -12 26
-19 7 -6 -17 -8 -15 -15 13 -4 20 -12 32 -19 29 -14 -5 -51 109 -61 183 -28
227 -24 713 6 695 5 -4 9 -1 9 4 0 6 5 11 10 11 6 0 10 -7 10 -15 0 -22 13
-18 51 16 19 17 50 38 69 46 19 7 45 19 57 25 15 7 53 8 125 2 93 -8 103 -11
103 -29 0 -29 -79 -64 -177 -79 -10 -1 -21 -5 -24 -9 -4 -4 -15 -7 -24 -7 -9
0 -27 -9 -40 -20 -13 -11 -27 -20 -32 -20 -5 0 -15 -15 -23 -34 -8 -19 -19
-37 -25 -41 -12 -7 -13 -74 -2 -92 5 -7 41 -14 92 -16 49 -2 101 -11 122 -21
21 -9 42 -16 47 -16 23 0 20 -21 -3 -30 -32 -12 -34 -26 -3 -25 40 2 108 26
102 35 -4 6 -1 10 4 10 7 0 7 7 -1 20 -7 11 -20 20 -29 20 -41 0 -24 15 33 29
57 15 63 19 70 49 10 37 10 37 49 17 16 -9 37 -14 47 -13 12 2 18 -5 20 -26
l4 -29 23 42 c35 60 40 100 20 147 -10 21 -17 51 -16 67 1 15 -3 27 -9 27 -5
0 -10 8 -10 18 0 9 -14 28 -31 42 -17 14 -37 30 -44 37 -7 6 -50 21 -96 32
-69 16 -96 18 -149 11 -112 -16 -147 -26 -195 -56 -94 -57 -105 -64 -105 -59
0 3 0 8 1 11 0 4 -5 10 -13 15 -10 6 -9 11 7 23 11 8 17 18 13 22 -5 4 4 22
18 41 14 19 23 40 20 48 -3 8 6 30 20 50 13 20 24 45 24 57 0 12 8 30 17 41
10 10 18 24 18 30 2 20 47 112 60 119 6 4 17 25 25 47 7 23 21 43 32 46 10 4
22 15 28 25 5 10 31 26 57 36 27 9 57 25 68 34 11 10 45 25 75 35 71 22 120
46 142 67 9 9 50 33 91 52 40 19 90 45 110 59 22 15 59 27 94 32 31 4 62 13
68 21 6 9 45 18 105 25 52 6 97 13 99 15 8 7 32 4 54 -8z"/>
<path d="M12825 7839 c-22 -4 -60 -12 -85 -17 -60 -11 -130 -51 -130 -74 0
-11 49 -58 61 -58 6 0 36 13 67 30 68 35 148 60 194 60 18 0 47 4 65 9 20 6
47 5 72 -1 26 -7 50 -7 68 0 l28 9 -39 17 c-76 32 -212 44 -301 25z"/>
<path d="M12796 7631 c-33 -4 -61 -12 -64 -19 -2 -6 -9 -12 -16 -12 -15 0 -61
-48 -70 -75 -8 -23 14 -105 29 -105 6 0 33 14 59 31 51 32 76 32 76 2 0 -10 7
-28 15 -40 15 -21 21 -22 98 -17 45 3 86 8 90 11 5 3 6 16 3 28 -3 13 -3 30 0
38 8 21 42 9 46 -17 3 -18 9 -21 51 -19 71 3 132 46 97 68 -5 3 -10 16 -10 28
0 25 -54 67 -86 67 -11 0 -24 4 -30 10 -9 9 -179 31 -214 28 -8 0 -42 -4 -74
-7z m264 -59 c30 -15 53 -31 50 -37 -3 -5 -9 -8 -15 -7 -67 23 -147 31 -229
21 -100 -12 -129 -2 -74 26 82 43 179 42 268 -3z"/>
<path d="M12457 6945 c-55 -21 -82 -43 -82 -68 0 -19 -6 -22 -43 -25 -29 -2
-51 3 -70 16 -54 38 -117 55 -177 47 -54 -6 -56 -8 -53 -33 2 -22 11 -29 48
-40 25 -7 79 -24 121 -37 42 -14 89 -25 104 -25 32 0 85 35 85 56 0 8 4 13 9
9 6 -3 15 3 21 14 13 25 79 44 125 35 21 -4 48 -1 65 6 91 38 -56 80 -153 45z"/>
<path d="M12980 6707 c0 -7 5 -18 11 -24 33 -33 -63 -59 -191 -53 -197 9 -655
4 -705 -8 -62 -15 -94 -15 -170 -3 -52 9 -63 8 -85 -8 -15 -11 -26 -30 -28
-47 -2 -23 3 -32 29 -46 17 -10 41 -18 53 -18 12 0 37 -11 56 -25 43 -31 64
-33 55 -4 -7 21 -7 21 18 3 23 -17 23 -19 6 -22 -24 -4 -24 -18 -1 -31 9 -6
11 -11 5 -11 -8 0 -6 -7 5 -18 31 -31 50 -33 69 -7 18 25 54 34 86 20 10 -4
17 -3 17 4 0 6 -11 16 -25 21 -14 5 -25 14 -25 20 0 5 -6 10 -12 10 -7 0 -21
7 -31 15 -26 19 -14 55 18 55 12 0 26 7 29 16 4 11 16 15 38 13 18 -2 43 3 56
10 33 18 248 34 284 22 20 -7 36 -7 48 -1 26 14 72 12 95 -3 28 -20 78 -27
111 -18 23 6 34 4 51 -11 17 -16 29 -19 62 -13 23 4 41 11 41 16 0 6 4 7 10 4
5 -3 20 1 32 9 12 9 30 16 40 16 9 0 26 13 38 29 23 33 23 33 -43 76 -44 29
-47 30 -47 12z"/>
<path d="M14350 6211 c-30 -10 -106 -33 -167 -51 -62 -18 -113 -37 -113 -41 0
-10 158 -66 211 -74 l46 -7 36 51 c21 28 37 54 37 57 0 3 9 17 20 31 43 54 22
64 -70 34z"/>
<path d="M215 5060 c-3 -6 -17 -7 -30 -4 -21 5 -25 2 -31 -30 -7 -40 7 -66 36
-66 9 0 25 -16 36 -35 22 -42 37 -40 44 6 4 25 11 35 27 37 28 4 37 30 18 52
-8 9 -15 21 -15 27 0 6 -14 13 -31 17 -42 8 -47 8 -54 -4z"/>
<path d="M12875 4730 c10 -11 39 -34 64 -51 32 -21 46 -37 46 -53 1 -34 23
-56 56 -56 15 0 34 -6 41 -13 26 -26 127 -86 224 -133 55 -26 119 -62 143 -81
24 -18 50 -33 57 -33 7 0 17 -6 21 -13 4 -8 24 -24 43 -38 19 -13 45 -36 59
-51 20 -22 28 -25 44 -16 26 14 65 -15 91 -66 18 -38 18 -38 -5 -89 -13 -29
-30 -60 -38 -70 -13 -15 -12 -20 7 -40 12 -13 22 -28 22 -33 0 -12 37 -44 50
-44 6 0 10 -5 10 -10 0 -6 10 -14 23 -19 32 -12 118 -91 112 -102 -4 -5 2 -6
11 -2 12 4 15 3 10 -5 -5 -8 0 -12 14 -12 12 0 18 -4 15 -10 -3 -5 -1 -10 5
-10 8 0 9 14 4 45 -10 69 2 114 34 126 27 11 27 11 -94 128 -117 112 -123 120
-143 185 -12 37 -21 79 -21 92 0 30 -33 64 -61 64 -12 0 -34 -13 -49 -30 -15
-16 -33 -30 -39 -30 -16 0 -89 69 -96 91 -4 11 -11 17 -16 13 -16 -9 -68 15
-150 72 -42 28 -97 61 -122 72 -44 19 -103 59 -137 91 -8 8 -42 27 -75 42 -33
16 -80 47 -105 69 -48 42 -89 57 -55 20z"/>
<path d="M15851 4686 c-9 -11 -9 -22 4 -52 10 -25 14 -52 10 -76 -4 -25 -2
-44 9 -60 8 -13 18 -55 21 -94 8 -84 -3 -115 -37 -107 -23 6 -23 6 -4 -15 10
-12 23 -45 27 -74 5 -29 15 -58 24 -64 18 -13 20 -31 4 -36 -12 -4 -9 -17 24
-113 6 -16 17 -38 25 -47 8 -9 11 -25 8 -36 -4 -13 0 -27 11 -38 17 -17 18
-11 21 155 2 133 -1 179 -12 204 -8 18 -17 48 -21 67 -3 19 -13 71 -21 115 -8
44 -18 95 -21 113 -3 17 -9 32 -13 32 -4 0 -6 10 -3 23 4 27 -20 110 -34 114
-5 2 -15 -3 -22 -11z"/>
<path d="M14260 4207 c0 -24 -6 -39 -17 -46 -15 -8 -12 -11 17 -25 19 -8 43
-21 53 -28 15 -11 20 -10 28 5 6 11 22 17 44 17 40 0 42 3 16 38 -10 15 -20
36 -23 47 -2 13 -10 19 -23 17 -33 -5 -39 -5 -67 3 -27 7 -28 6 -28 -28z"/>
<path d="M14125 3750 c12 -60 29 -100 41 -100 18 0 44 -39 37 -56 -3 -8 -9
-11 -14 -8 -5 3 -18 2 -30 -1 -27 -9 -12 -27 43 -50 24 -9 55 -24 70 -32 24
-12 135 -53 144 -53 14 0 -76 107 -176 210 -114 115 -122 122 -115 90z"/>
<path d="M11110 3735 c-19 -14 -38 -34 -42 -45 -9 -24 22 -65 61 -78 24 -9 32
-7 47 9 20 23 34 101 22 123 -13 23 -49 19 -88 -9z"/>
<path d="M12055 3483 c-28 -3 -53 -10 -58 -18 -8 -15 -49 -29 -109 -40 -26 -4
-38 -11 -39 -23 0 -10 -3 -12 -6 -5 -8 21 -40 -3 -46 -34 -9 -43 -30 -65 -62
-65 -32 0 -55 -18 -55 -42 0 -8 -4 -18 -10 -21 -16 -10 -12 -55 5 -55 21 0 65
22 65 32 0 5 9 12 19 16 11 4 49 34 86 66 36 33 74 60 83 61 9 1 46 12 82 25
49 18 70 31 88 57 22 35 28 54 15 51 -5 -1 -30 -3 -58 -5z"/>
<path d="M15965 3427 c-11 -17 -33 -38 -49 -45 -37 -18 -406 -42 -646 -42
-184 0 -249 -6 -253 -25 -5 -24 150 -25 563 -5 270 14 292 16 361 30 l56 11 2
55 c1 30 -2 54 -6 54 -4 -1 -17 -15 -28 -33z"/>
<path d="M14230 3225 c0 -6 5 -16 11 -22 21 -21 2 -43 -36 -43 -86 0 6 -64
126 -86 46 -9 105 -27 131 -40 46 -23 125 -54 141 -54 5 0 5 5 2 10 -3 6 -15
10 -25 10 -11 0 -24 9 -30 20 -6 11 -17 20 -24 20 -14 0 -70 46 -124 103 -19
20 -43 37 -53 37 -25 0 -102 31 -111 44 -5 8 -8 8 -8 1z"/>
<path d="M8410 1129 c-30 -33 -65 -71 -76 -85 -12 -13 -27 -24 -33 -24 -7 0
-17 -13 -22 -30 -6 -16 -17 -30 -24 -30 -7 0 -27 -12 -43 -27 -45 -42 -60 -53
-73 -53 -7 0 -10 3 -6 6 3 4 0 13 -8 21 -16 16 -18 33 -19 167 -1 100 -15 121
-36 54 -25 -83 -44 -117 -72 -127 -41 -15 -52 -44 -33 -85 9 -19 23 -37 31
-40 8 -3 14 -15 14 -26 0 -12 10 -25 25 -32 15 -7 24 -17 21 -25 -8 -19 10
-60 39 -89 16 -16 24 -32 20 -44 -4 -12 1 -19 13 -22 22 -6 52 -60 52 -93 0
-11 4 -25 9 -31 6 -5 6 -37 0 -84 -11 -90 -6 -110 28 -110 19 0 24 -4 19 -16
-3 -9 -6 -18 -6 -20 0 -3 -4 -3 -9 0 -5 3 -11 -5 -13 -19 -4 -20 -1 -25 14
-25 13 0 18 -6 16 -17 -2 -10 -9 -17 -15 -16 -16 3 -29 -40 -14 -45 18 -6 14
-82 -4 -82 -11 0 -15 -11 -15 -40 l0 -40 134 0 134 0 7 30 c12 55 -17 158 -49
170 -21 8 -21 8 4 15 28 7 100 112 100 145 0 15 -8 22 -31 27 -22 4 -27 8 -17
14 10 7 9 9 -4 9 -22 0 -68 -21 -68 -31 0 -4 -15 -3 -32 3 -34 11 -61 36 -53
48 3 5 -9 13 -25 19 -17 5 -30 15 -30 22 0 7 -11 27 -25 45 -14 18 -25 42 -25
53 0 11 -12 29 -26 40 -15 12 -24 21 -20 21 4 0 -2 10 -14 22 -11 12 -20 30
-20 41 0 22 30 77 43 77 4 0 22 29 38 65 17 36 35 65 39 65 7 0 45 36 101 98
9 9 31 31 50 47 28 25 99 125 99 141 0 2 -8 4 -17 4 -10 0 -43 -28 -73 -61z"/>
<path d="M6384 751 c9 -10 16 -23 16 -29 0 -21 50 -93 60 -87 6 3 7 -1 4 -9
-9 -24 -35 -19 -96 18 -65 39 -100 34 -52 -8 16 -14 32 -26 37 -26 15 0 7 -20
-9 -20 -24 0 -11 -23 21 -40 16 -8 36 -22 45 -31 30 -32 154 -132 199 -160 58
-38 75 -38 66 -1 -4 15 -8 33 -9 40 -1 7 -8 18 -14 24 -7 7 -12 16 -12 21 0 5
-18 25 -40 46 -22 20 -40 44 -40 53 0 8 -12 28 -26 43 -14 15 -23 34 -20 41 3
8 -3 22 -14 31 -11 10 -20 28 -20 40 0 13 -4 23 -9 23 -5 0 -11 10 -13 23 -3
19 -10 22 -46 24 -41 1 -43 0 -28 -16z"/>
<path d="M10406 658 c17 -179 18 -181 59 -154 21 14 23 22 20 66 -3 35 1 54
12 65 22 22 11 39 -33 54 -22 7 -44 15 -51 17 -9 4 -11 -9 -7 -48z"/>
<path d="M15480 526 c0 -9 -5 -16 -11 -16 -6 0 -9 -7 -5 -15 7 -18 -34 -21
-51 -4 -14 14 -53 -5 -53 -26 0 -9 -9 -15 -22 -15 -24 0 -93 -49 -70 -50 6 0
12 -7 12 -15 0 -20 66 -20 86 -1 12 13 12 15 -4 20 -9 3 13 3 51 1 l67 -4 0
40 c0 25 5 42 14 45 8 3 12 13 9 25 -7 25 -23 35 -23 15z"/>
<path d="M10500 219 c0 -29 30 -78 53 -85 10 -3 29 1 42 10 24 16 89 21 119
10 22 -8 12 -122 -13 -141 -13 -10 -6 -12 43 -13 l59 0 -8 48 c-4 26 -7 58 -6
72 1 14 -4 37 -10 52 -10 25 -16 27 -97 33 -48 3 -107 13 -131 21 -55 17 -51
18 -51 -7z"/>
</g>
</svg>
